<?xml version="1.0" encoding="utf-8"?>
<!-- Generator: Adobe Illustrator 27.5.0, SVG Export Plug-In . SVG Version: 6.00 Build 0)  -->
<svg version="1.1" xmlns="http://www.w3.org/2000/svg" xmlns:xlink="http://www.w3.org/1999/xlink" x="0px" y="0px"
	 viewBox="0 0 500 500" style="enable-background:new 0 0 500 500;" xml:space="preserve">
<g id="BACKGROUND">
	<rect style="fill:#FFFFFF;" width="500" height="500"/>
</g>
<g id="OBJECTS">
	<g>
		<g>
			<g>
				<rect x="112.127" y="305.232" style="fill:none;" width="275.746" height="72.781"/>
				
					<text transform="matrix(1 0 0 1 112.1266 362.4127)" style="fill:#0F186D; font-family:'Montserrat-BlackItalic'; font-size:77.0627px;">GLASS </text>
			</g>
			<rect x="165.824" y="376.891" style="fill:none;" width="175.523" height="11.994"/>
			
				<text transform="matrix(1 0 0 1 165.8242 388.5725)" style="fill:#232EBF; font-family:'Montserrat-BoldItalic'; font-size:15.7427px;">YOUR TAGLINE HERE</text>
		</g>
		<g>
			<g>
				<g>
					<g>
						<path style="fill:#4CC0FE;" d="M174.039,282.682h61.995l-87.321-62.084v36.758
							C148.712,271.343,160.051,282.682,174.039,282.682z"/>
						<g>
							<g>
								<linearGradient id="SVGID_1_" gradientUnits="userSpaceOnUse" x1="192.373" y1="282.6816" x2="192.373" y2="220.5976">
									<stop  offset="0" style="stop-color:#FFFFFF"/>
									<stop  offset="0.5" style="stop-color:#FFFFFF;stop-opacity:0"/>
									<stop  offset="1" style="stop-color:#FFFFFF"/>
								</linearGradient>
								<path style="fill:url(#SVGID_1_);" d="M152.448,227.837l71.885,51.109h-50.294c-11.905,0-21.591-9.686-21.591-21.591
									V227.837 M148.712,220.598v36.758c0,13.987,11.339,25.326,25.326,25.326h61.995L148.712,220.598L148.712,220.598z"/>
							</g>
						</g>
					</g>
					<g>
						<path style="fill:#35E4FF;" d="M331.343,110.686h-61.995l87.321,62.084v-36.758
							C356.669,122.025,345.33,110.686,331.343,110.686z"/>
						<g>
							<g>
								
									<linearGradient id="SVGID_00000016036502980007279520000000022765887005648537_" gradientUnits="userSpaceOnUse" x1="313.0081" y1="110.6863" x2="313.0081" y2="172.7703">
									<stop  offset="0" style="stop-color:#FFFFFF"/>
									<stop  offset="0.5" style="stop-color:#FFFFFF;stop-opacity:0"/>
									<stop  offset="1" style="stop-color:#FFFFFF"/>
								</linearGradient>
								<path style="fill:url(#SVGID_00000016036502980007279520000000022765887005648537_);" d="M331.343,114.422
									c11.905,0,21.591,9.686,21.591,21.591v29.518l-71.885-51.109H331.343 M331.343,110.686h-61.995l87.321,62.084v-36.758
									C356.669,122.025,345.33,110.686,331.343,110.686L331.343,110.686z"/>
							</g>
						</g>
					</g>
				</g>
				<g>
					<path style="fill:#2847D9;" d="M347.306,185.812l-102.454-66.043H174.25c-8.903,0-16.121,6.544-16.121,14.616l0,0
						l189.177,121.768V185.812z"/>
				</g>
				<path style="fill:#35E4FF;" d="M262.899,272.181l-104.77-67.377v36.405c0,17.105,15.294,30.971,34.16,30.971H262.899z"/>
				<g>
					<path style="fill:#232EBF;" d="M317.591,119.769h-72.738l102.454,66.043V146.71
						C347.306,131.831,334.002,119.769,317.591,119.769z"/>
				</g>
				<path style="fill:#4CC0FE;" d="M347.306,256.154L347.306,256.154L158.129,134.385v70.419l104.77,67.377h66.73
					C339.392,272.181,347.306,265.006,347.306,256.154z"/>
				<g>
					<g>
						
							<linearGradient id="SVGID_00000029019572712509037710000014527232042359275697_" gradientUnits="userSpaceOnUse" x1="210.514" y1="204.8048" x2="210.514" y2="272.1814">
							<stop  offset="0" style="stop-color:#FFFFFF"/>
							<stop  offset="0.5" style="stop-color:#FFFFFF;stop-opacity:0"/>
							<stop  offset="1" style="stop-color:#FFFFFF"/>
						</linearGradient>
						<path style="fill:url(#SVGID_00000029019572712509037710000014527232042359275697_);" d="M161.865,211.648l88.319,56.797
							h-57.895c-16.776,0-30.425-12.218-30.425-27.236V211.648 M158.129,204.805v36.405c0,17.105,15.294,30.971,34.16,30.971h70.609
							L158.129,204.805L158.129,204.805z"/>
					</g>
				</g>
				<g>
					
						<linearGradient id="SVGID_00000085949636715554505600000015178241773641596551_" gradientUnits="userSpaceOnUse" x1="252.7177" y1="134.3854" x2="252.7177" y2="272.1814">
						<stop  offset="0" style="stop-color:#FFFFFF"/>
						<stop  offset="0.5" style="stop-color:#FFFFFF;stop-opacity:0"/>
						<stop  offset="1" style="stop-color:#FFFFFF"/>
					</linearGradient>
					<path style="fill:url(#SVGID_00000085949636715554505600000015178241773641596551_);" d="M161.865,141.232l181.535,116.849
						c-1.052,5.865-6.827,10.364-13.771,10.364h-65.632l-102.132-65.68V141.232 M158.129,134.385v70.419l104.77,67.377h66.73
						c9.763,0,17.678-7.176,17.678-16.027L158.129,134.385L158.129,134.385z"/>
				</g>
				<g>
					<g>
						
							<linearGradient id="SVGID_00000041282600431668064640000000786403613919643828_" gradientUnits="userSpaceOnUse" x1="252.7177" y1="119.769" x2="252.7177" y2="256.1539">
							<stop  offset="0" style="stop-color:#FFFFFF"/>
							<stop  offset="0.5" style="stop-color:#FFFFFF;stop-opacity:0"/>
							<stop  offset="1" style="stop-color:#FFFFFF"/>
						</linearGradient>
						<path style="fill:url(#SVGID_00000041282600431668064640000000786403613919643828_);" d="M243.753,123.505l99.817,64.344
							v61.458L162.057,132.471c1.032-5.09,6.107-8.966,12.194-8.966H243.753 M244.853,119.769H174.25
							c-8.903,0-16.121,6.544-16.121,14.616l189.177,121.768v-70.342L244.853,119.769L244.853,119.769z"/>
					</g>
				</g>
				<g>
					<g>
						
							<linearGradient id="SVGID_00000158737017596634038420000016209296949934332068_" gradientUnits="userSpaceOnUse" x1="296.0795" y1="119.769" x2="296.0795" y2="185.8122">
							<stop  offset="0" style="stop-color:#FFFFFF"/>
							<stop  offset="0.5" style="stop-color:#FFFFFF;stop-opacity:0"/>
							<stop  offset="1" style="stop-color:#FFFFFF"/>
						</linearGradient>
						<path style="fill:url(#SVGID_00000158737017596634038420000016209296949934332068_);" d="M317.591,123.505
							c14.325,0,25.979,10.41,25.979,23.206v32.249l-86.028-55.455H317.591 M317.591,119.769h-72.738l102.454,66.043V146.71
							C347.306,131.831,334.002,119.769,317.591,119.769L317.591,119.769z"/>
					</g>
				</g>
			</g>
			<path style="fill:#FFFFFF;" d="M326.519,195.318c0-51.33-8.105-59.435-59.435-59.435c51.331,0,59.435-8.105,59.435-59.435
				c0,51.33,8.105,59.435,59.435,59.435C334.624,135.883,326.519,143.988,326.519,195.318z"/>
		</g>
	</g>
</g>
</svg>
